<?xml version="1.0" encoding="UTF-8"?><svg id="Layer_2" xmlns="http://www.w3.org/2000/svg" viewBox="0 0 203.88 217.94"><defs><style>.cls-1{fill:red;}</style></defs><g id="svg1326"><path id="path30" class="cls-1" d="m100.56,217.3c-.2-.36-1.07-2.98-1.92-5.82-5.43-18-15.5-36.24-32.37-58.58-6.34-8.4-12.3-15.83-28.43-35.44-18.68-22.7-24.03-29.97-29.43-40.01-3.19-5.92-6.5-14.94-7.58-20.68-1.09-5.74-1.1-15.11-.04-19.99C5.13,16.93,22.76,1.96,43.85.21c24.15-2,44.7,10.2,55.49,32.96l2.41,5.08,1.81-4.01c2.7-5.96,5.29-10,9.67-15.03C124.4,6.39,137.68.11,153.67.09c7.17,0,11.27.58,17.38,2.52,9.13,2.89,16.01,7.39,22.13,14.49,15.95,18.5,14.07,43.71-5.59,74.58-4.58,7.2-12.86,17.86-24.23,31.21-13.1,15.38-19.5,23.2-26.06,31.82-15.71,20.66-26.27,39.44-32.09,57.02-.89,2.68-1.82,5.18-2.06,5.55-.58.87-2.11.88-2.59.02Z"/></g></svg>